<svg width="32" height="32" viewBox="0 0 32 32" fill="none" xmlns="http://www.w3.org/2000/svg">
<path d="M16 3.2C8.93118 3.2 3.19998 8.9312 3.19998 16C3.19998 23.0688 8.93118 28.8 16 28.8C23.0688 28.8 28.8 23.0688 28.8 16C28.8 8.9312 23.0688 3.2 16 3.2ZM23.1541 13.5541L15.0901 21.6181C14.8896 21.8187 14.6186 21.9307 14.336 21.9307C14.0533 21.9307 13.7813 21.8187 13.5818 21.6181L9.89865 17.9349C9.48158 17.5179 9.48158 16.8437 9.89865 16.4267C10.3157 16.0096 10.9898 16.0096 11.4069 16.4267L14.336 19.3557L21.6458 12.0459C22.0629 11.6288 22.7371 11.6288 23.1541 12.0459C23.5712 12.4629 23.5712 13.1371 23.1541 13.5541Z" fill="#FF8484"/>
</svg>
