<svg width="40" height="40" viewBox="0 0 40 40" fill="none" xmlns="http://www.w3.org/2000/svg">
<path d="M20 4C11.164 4 4 11.164 4 20C4 28.836 11.164 36 20 36C28.836 36 36 28.836 36 20C36 11.164 28.836 4 20 4ZM28.9427 16.9427L18.8627 27.0227C18.612 27.2733 18.2733 27.4133 17.92 27.4133C17.5667 27.4133 17.2267 27.2733 16.9773 27.0227L12.3733 22.4187C11.852 21.8973 11.852 21.0547 12.3733 20.5333C12.8947 20.012 13.7373 20.012 14.2587 20.5333L17.92 24.1947L27.0573 15.0573C27.5787 14.536 28.4213 14.536 28.9427 15.0573C29.464 15.5787 29.464 16.4213 28.9427 16.9427Z" fill="#219653"/>
</svg>
